<svg width="20" height="20" viewBox="0 0 20 20" fill="none" xmlns="http://www.w3.org/2000/svg">
<circle cx="10" cy="10" r="10" fill="#EB5757"/>
<path fill-rule="evenodd" clip-rule="evenodd" d="M6.26048 6.26051C6.82999 5.691 7.75336 5.69099 8.32287 6.26051L10.0906 8.02828L11.8584 6.26051C12.4279 5.69099 13.3513 5.691 13.9208 6.26051C14.4903 6.83003 14.4903 7.75339 13.9208 8.32291L12.153 10.0907L13.9208 11.8584C14.4903 12.428 14.4903 13.3513 13.9208 13.9208C13.3513 14.4903 12.4279 14.4903 11.8584 13.9208L10.0906 12.1531L8.32289 13.9208C7.75337 14.4903 6.83001 14.4903 6.26049 13.9208C5.69098 13.3513 5.69098 12.428 6.26049 11.8584L8.02825 10.0907L6.26048 8.3229C5.69096 7.75339 5.69096 6.83002 6.26048 6.26051Z" fill="white"/>
</svg>
