<svg width="20" height="20" viewBox="0 0 20 20" fill="none" xmlns="http://www.w3.org/2000/svg">
<circle cx="10" cy="10" r="10" fill="#219653"/>
<path d="M12.8841 5.9521C12.738 5.87076 12.5772 5.81903 12.411 5.79988C12.2448 5.78072 12.0765 5.79451 11.9156 5.84046C11.7548 5.88641 11.6046 5.96362 11.4736 6.06767C11.3426 6.17172 11.2334 6.30057 11.1522 6.44685L8.78802 10.7015L7.43495 9.34846C7.31748 9.22683 7.17696 9.12981 7.02159 9.06307C6.86622 8.99633 6.69911 8.9612 6.53002 8.95973C6.36093 8.95826 6.19324 8.99048 6.03674 9.05451C5.88023 9.11855 5.73805 9.21311 5.61848 9.33268C5.49891 9.45225 5.40435 9.59443 5.34031 9.75094C5.27628 9.90744 5.24406 10.0751 5.24553 10.2442C5.247 10.4133 5.28213 10.5804 5.34887 10.7358C5.41561 10.8912 5.51263 11.0317 5.63426 11.1492L8.18121 13.6961C8.42189 13.9374 8.74663 14.0699 9.08155 14.0699L9.25793 14.0571C9.45312 14.0298 9.63931 13.9576 9.80184 13.8461C9.96437 13.7346 10.0988 13.5869 10.1946 13.4147L13.3783 7.68403C13.4595 7.53787 13.5112 7.37713 13.5304 7.21098C13.5496 7.04484 13.5358 6.87655 13.4899 6.71573C13.444 6.5549 13.3669 6.40469 13.263 6.27367C13.159 6.14264 13.0303 6.03338 12.8841 5.9521Z" fill="white"/>
</svg>
