<svg width="11" height="23" viewBox="0 0 11 23" fill="none" xmlns="http://www.w3.org/2000/svg">
<path d="M2.65106 4.44464V7.44464H0.412964V11.1589H2.65106V22.1113H7.17487V11.1589H10.2701C10.4606 9.98432 10.5876 8.74623 10.6511 7.44464H7.22249V4.92083C7.22249 4.73035 7.32566 4.53194 7.53201 4.32559C7.73836 4.11924 7.96852 4.01607 8.22249 4.01607H10.6987V0.206543H7.31773C6.42884 0.206543 5.659 0.341464 5.0082 0.611305C4.35741 0.881146 3.88915 1.18273 3.60344 1.51607C3.31773 1.8494 3.0955 2.25416 2.93677 2.73035C2.77804 3.20654 2.69074 3.54781 2.67487 3.75416C2.659 3.96051 2.65106 4.19067 2.65106 4.44464Z" fill="#4267B2"/>
</svg>
